<svg width="40" height="12" viewBox="0 0 40 12" fill="none" xmlns="http://www.w3.org/2000/svg">
<path d="M7.96875 11H0.79834V9.77686L4.35059 5.90234C4.86328 5.33105 5.22705 4.85498 5.44189 4.47412C5.66162 4.08838 5.77148 3.70264 5.77148 3.31689C5.77148 2.80908 5.62744 2.39893 5.33936 2.08643C5.05615 1.77393 4.67285 1.61768 4.18945 1.61768C3.61328 1.61768 3.1665 1.79346 2.84912 2.14502C2.53174 2.49658 2.37305 2.97754 2.37305 3.58789H0.593262C0.593262 2.93848 0.739746 2.35498 1.03271 1.8374C1.33057 1.31494 1.75293 0.909668 2.2998 0.621582C2.85156 0.333496 3.48633 0.189453 4.2041 0.189453C5.23926 0.189453 6.05469 0.450684 6.65039 0.973145C7.25098 1.49072 7.55127 2.2085 7.55127 3.12646C7.55127 3.65869 7.3999 4.21777 7.09717 4.80371C6.79932 5.38477 6.30859 6.04639 5.625 6.78857L3.01758 9.5791H7.96875V11ZM15.3442 7.19873H16.6699V8.62695H15.3442V11H13.5645V8.62695H8.95752L8.90625 7.54297L13.5059 0.335938H15.3442V7.19873ZM10.7739 7.19873H13.5645V2.74561L13.4326 2.97998L10.7739 7.19873ZM24.7998 6.51025C24.7998 8.04346 24.5117 9.20068 23.9355 9.98193C23.3643 10.7583 22.4927 11.1465 21.3208 11.1465C20.1685 11.1465 19.2993 10.7681 18.7134 10.0112C18.1323 9.24951 17.8345 8.12402 17.8198 6.63477V4.78906C17.8198 3.25586 18.1055 2.10596 18.6768 1.33936C19.2529 0.572754 20.1294 0.189453 21.3062 0.189453C22.4731 0.189453 23.3423 0.562988 23.9136 1.31006C24.4897 2.05713 24.7852 3.17529 24.7998 4.66455V6.51025ZM23.02 4.51807C23.02 3.51709 22.8833 2.78467 22.6099 2.3208C22.3364 1.85205 21.9019 1.61768 21.3062 1.61768C20.7251 1.61768 20.2979 1.83984 20.0244 2.28418C19.751 2.72363 19.6069 3.41211 19.5923 4.34961V6.7666C19.5923 7.7627 19.7314 8.50488 20.0098 8.99316C20.2881 9.48145 20.7251 9.72559 21.3208 9.72559C21.8921 9.72559 22.3145 9.50098 22.5879 9.05176C22.8613 8.59766 23.0054 7.88965 23.02 6.92773V4.51807ZM35.3101 9.30811H32.9517V11H31.106V9.30811H29.6045V7.82129H31.106V7.0376H29.6045V5.55078H31.106V0.335938H35.1855C36.3623 0.335938 37.3022 0.643555 38.0054 1.25879C38.7085 1.86914 39.0601 2.68213 39.0601 3.69775C39.0601 4.73291 38.7256 5.5459 38.0566 6.13672C37.3877 6.72266 36.4575 7.02295 35.2661 7.0376H32.9517V7.82129H35.3101V9.30811ZM32.9517 5.55078H35.1562C35.8203 5.55078 36.3281 5.39697 36.6797 5.08936C37.0312 4.78174 37.207 4.32275 37.207 3.7124C37.207 3.16553 37.0337 2.71875 36.687 2.37207C36.3452 2.02539 35.8716 1.84473 35.2661 1.83008H32.9517V5.55078Z" fill="#1D1D1D"/>
</svg>
