<svg width="40" height="12" viewBox="0 0 40 12" fill="none" xmlns="http://www.w3.org/2000/svg">
<path d="M2.85645 4.85498H3.94043C4.4873 4.8501 4.91943 4.7085 5.23682 4.43018C5.55908 4.15186 5.72021 3.74902 5.72021 3.22168C5.72021 2.71387 5.58594 2.3208 5.31738 2.04248C5.05371 1.75928 4.64844 1.61768 4.10156 1.61768C3.62305 1.61768 3.22998 1.75684 2.92236 2.03516C2.61475 2.30859 2.46094 2.66748 2.46094 3.11182H0.681152C0.681152 2.56494 0.825195 2.06689 1.11328 1.61768C1.40625 1.16846 1.81152 0.819336 2.3291 0.570312C2.85156 0.316406 3.43506 0.189453 4.07959 0.189453C5.14404 0.189453 5.979 0.458008 6.58447 0.995117C7.19482 1.52734 7.5 2.26953 7.5 3.22168C7.5 3.7002 7.34619 4.15186 7.03857 4.57666C6.73584 4.99658 6.34277 5.31396 5.85938 5.52881C6.44531 5.729 6.88965 6.04395 7.19238 6.47363C7.5 6.90332 7.65381 7.41602 7.65381 8.01172C7.65381 8.96875 7.32422 9.73047 6.66504 10.2969C6.01074 10.8633 5.14893 11.1465 4.07959 11.1465C3.0542 11.1465 2.21436 10.873 1.56006 10.3262C0.905762 9.7793 0.578613 9.05176 0.578613 8.14355H2.3584C2.3584 8.6123 2.51465 8.99316 2.82715 9.28613C3.14453 9.5791 3.56934 9.72559 4.10156 9.72559C4.65332 9.72559 5.08789 9.5791 5.40527 9.28613C5.72266 8.99316 5.88135 8.56836 5.88135 8.01172C5.88135 7.4502 5.71533 7.01807 5.3833 6.71533C5.05127 6.4126 4.55811 6.26123 3.90381 6.26123H2.85645V4.85498ZM16.4941 11H9.32373V9.77686L12.876 5.90234C13.3887 5.33105 13.7524 4.85498 13.9673 4.47412C14.187 4.08838 14.2969 3.70264 14.2969 3.31689C14.2969 2.80908 14.1528 2.39893 13.8647 2.08643C13.5815 1.77393 13.1982 1.61768 12.7148 1.61768C12.1387 1.61768 11.6919 1.79346 11.3745 2.14502C11.0571 2.49658 10.8984 2.97754 10.8984 3.58789H9.11865C9.11865 2.93848 9.26514 2.35498 9.55811 1.8374C9.85596 1.31494 10.2783 0.909668 10.8252 0.621582C11.377 0.333496 12.0117 0.189453 12.7295 0.189453C13.7646 0.189453 14.5801 0.450684 15.1758 0.973145C15.7764 1.49072 16.0767 2.2085 16.0767 3.12646C16.0767 3.65869 15.9253 4.21777 15.6226 4.80371C15.3247 5.38477 14.834 6.04639 14.1504 6.78857L11.543 9.5791H16.4941V11ZM24.7998 6.51025C24.7998 8.04346 24.5117 9.20068 23.9355 9.98193C23.3643 10.7583 22.4927 11.1465 21.3208 11.1465C20.1685 11.1465 19.2993 10.7681 18.7134 10.0112C18.1323 9.24951 17.8345 8.12402 17.8198 6.63477V4.78906C17.8198 3.25586 18.1055 2.10596 18.6768 1.33936C19.2529 0.572754 20.1294 0.189453 21.3062 0.189453C22.4731 0.189453 23.3423 0.562988 23.9136 1.31006C24.4897 2.05713 24.7852 3.17529 24.7998 4.66455V6.51025ZM23.02 4.51807C23.02 3.51709 22.8833 2.78467 22.6099 2.3208C22.3364 1.85205 21.9019 1.61768 21.3062 1.61768C20.7251 1.61768 20.2979 1.83984 20.0244 2.28418C19.751 2.72363 19.6069 3.41211 19.5923 4.34961V6.7666C19.5923 7.7627 19.7314 8.50488 20.0098 8.99316C20.2881 9.48145 20.7251 9.72559 21.3208 9.72559C21.8921 9.72559 22.3145 9.50098 22.5879 9.05176C22.8613 8.59766 23.0054 7.88965 23.02 6.92773V4.51807ZM35.3101 9.30811H32.9517V11H31.106V9.30811H29.6045V7.82129H31.106V7.0376H29.6045V5.55078H31.106V0.335938H35.1855C36.3623 0.335938 37.3022 0.643555 38.0054 1.25879C38.7085 1.86914 39.0601 2.68213 39.0601 3.69775C39.0601 4.73291 38.7256 5.5459 38.0566 6.13672C37.3877 6.72266 36.4575 7.02295 35.2661 7.0376H32.9517V7.82129H35.3101V9.30811ZM32.9517 5.55078H35.1562C35.8203 5.55078 36.3281 5.39697 36.6797 5.08936C37.0312 4.78174 37.207 4.32275 37.207 3.7124C37.207 3.16553 37.0337 2.71875 36.687 2.37207C36.3452 2.02539 35.8716 1.84473 35.2661 1.83008H32.9517V5.55078Z" fill="#1D1D1D"/>
</svg>
